<svg version="1.0" xmlns="http://www.w3.org/2000/svg" width="100.000000pt" height="18.000000pt" viewBox="0 0 220.000000 32.000000" preserveAspectRatio="xMidYMid meet">
				<g transform="translate(0.000000,32.000000) scale(0.100000,-0.100000)" fill="#000000" stroke="none">
				<path d="M252 297 c22 -10 25 -16 16 -25 -9 -9 -16 -8 -30 5 -19 17 -26 5 -7
				-14 9 -9 5 -14 -15 -19 -14 -3 -26 -10 -26 -15 0 -11 3 -11 34 1 18 7 37 5 67
				-5 23 -9 44 -13 47 -10 3 2 14 -7 24 -21 11 -14 23 -23 26 -20 2 3 -1 13 -8
				21 -10 12 -10 19 -2 27 9 9 12 9 12 0 0 -7 11 -12 25 -12 16 0 25 -6 25 -15 0
				-8 -6 -15 -14 -15 -8 0 -18 -5 -22 -11 -4 -7 2 -9 17 -7 18 2 24 -3 32 -32 7
				-27 5 -36 -7 -46 -29 -21 -16 -23 26 -4 23 10 45 17 48 15 3 -1 13 8 23 21 20
				26 13 32 -12 10 -9 -7 -26 -17 -37 -20 -19 -6 -22 -2 -27 26 -4 23 0 37 11 46
				14 11 13 12 -6 12 -26 0 -30 26 -4 34 9 3 0 4 -20 1 -31 -3 -36 -1 -31 13 11
				32 15 33 39 17 13 -8 24 -11 24 -5 0 14 -47 43 -60 35 -5 -3 -10 -12 -10 -19
                0 -14 -49 -40 -59 -31 -3 4 2 12 12 19 22 17 22 30 0 17 -14 -7 -21 -5 -30 12
                -11 19 -12 19 -13 4 0 -10 5 -28 11 -39 11 -20 9 -21 -22 -14 -43 8 -46 12
                -24 36 22 24 19 28 -26 35 l-34 5 27 -13z"></path>
                <path d="M525 303 c-42 -10 -40 -24 3 -17 52 8 59 -12 7 -22 -19 -3 -35 -10
                -35 -15 0 -5 6 -7 13 -5 47 15 67 16 67 2 0 -9 -16 -16 -45 -20 -25 -4 -45
                -11 -45 -16 0 -5 13 -7 30 -4 25 6 30 3 36 -21 4 -15 7 -44 8 -64 1 -49 15
                -55 48 -24 31 29 37 18 18 -31 -6 -17 -6 -26 0 -26 6 0 10 7 10 15 0 21 13 19
                39 -8 l22 -24 42 41 42 41 -29 33 -30 32 -33 -32 c-43 -42 -46 -13 -3 35 36
                42 40 60 5 27 l-25 -23 -1 39 c-1 21 -4 30 -6 19 -2 -11 -15 -28 -28 -37 -22
                -17 -23 -17 -18 5 4 19 3 20 -7 5 -13 -21 -40 -24 -40 -4 0 8 11 17 25 20 23
                6 24 8 10 22 -8 8 -15 26 -15 40 0 25 -16 29 -65 17z m127 -145 c-6 -6 -15 -7
                -22 -3 -8 5 -6 13 7 27 16 18 18 19 21 3 2 -9 -1 -22 -6 -27z m93 -28 c18 -20
                18 -21 -10 -50 -49 -52 -65 -29 -18 24 26 29 25 29 -8 -2 -45 -42 -65 -25 -23
                19 33 34 36 35 59 9z m-131 1 c3 -5 -1 -14 -9 -21 -13 -10 -15 -9 -15 9 0 21
                14 28 24 12z"></path>
                <path d="M144 272 c5 -13 -1 -21 -21 -30 l-28 -11 29 2 c22 2 31 -4 37 -21 7
                -19 4 -24 -15 -32 -44 -16 -38 -60 9 -60 11 0 61 -12 109 -26 49 -14 91 -23
                94 -20 4 5 -4 9 -47 22 -11 4 -8 11 12 30 41 37 35 59 -17 73 -24 6 -51 14
                -60 17 -12 5 -19 0 -23 -15 -7 -29 -31 -26 -43 5 -14 35 -13 44 5 44 8 0 15 5
                15 11 0 6 -9 8 -20 4 -14 -5 -20 -2 -20 9 0 9 -5 16 -11 16 -6 0 -8 -8 -5 -18z
                m147 -84 c22 -6 39 -17 39 -25 0 -16 -13 -16 -62 -2 -37 10 -45 18 -31 32 8 9
                9 9 54 -5z m-111 -28 c0 -15 -38 -32 -45 -20 -3 5 -3 15 0 20 8 13 45 13 45 0z
                m44 -13 c12 -19 3 -32 -19 -24 -17 7 -21 51 -3 45 6 -2 16 -12 22 -21z m75 -7
                c11 0 11 -3 1 -15 -20 -24 -60 -19 -60 6 0 17 4 20 23 15 12 -3 28 -6 36 -6z"></path>
                <path d="M45 219 c9 -99 45 -165 45 -81 0 24 -3 32 -9 24 -10 -17 -21 5 -22
                46 0 15 -5 36 -10 47 -7 14 -8 4 -4 -36z"></path>
                <path d="M1002 258 c-10 -10 0 -25 44 -69 56 -56 56 -56 85 -42 37 18 79 10
                79 -16 0 -22 -14 -34 -55 -49 -26 -9 -27 -11 -7 -11 51 -2 91 43 72 79 -8 15
                -21 20 -53 20 -38 0 -48 6 -92 50 -54 55 -55 56 -73 38z m36 -27 c3 -8 -1 -12
                -9 -9 -7 2 -15 10 -17 17 -3 8 1 12 9 9 7 -2 15 -10 17 -17z m66 -73 c-8 -12
                -24 1 -24 19 0 9 -3 13 -7 10 -9 -10 -34 13 -27 25 3 5 19 -3 35 -18 15 -15
                26 -31 23 -36z"></path>
                <path d="M2054 249 c-4 -8 0 -9 15 -4 29 9 39 -20 17 -55 -18 -31 -20 -40 -8
                -40 4 0 16 18 26 40 15 32 17 42 6 55 -15 18 -46 20 -56 4z"></path>
                <path d="M831 238 c-1 -12 -10 -18 -28 -19 -27 -1 -27 -1 -5 -8 l24 -6 -21
                -27 c-27 -34 -27 -43 1 -24 12 9 32 16 43 16 18 0 17 -2 -8 -26 -43 -40 -33
                -59 33 -60 54 -2 54 -2 10 5 -35 5 -45 10 -45 25 0 25 25 34 26 9 1 -18 2 -16
                15 25 3 11 8 10 26 -2 12 -9 32 -16 44 -16 27 0 40 -15 49 -57 3 -18 11 -33
                16 -33 6 0 5 8 -1 20 -6 11 -9 24 -6 29 8 12 -41 54 -64 56 -26 2 -52 25 -29
                25 8 0 20 -5 27 -12 9 -9 12 -9 12 2 0 8 18 -3 40 -25 25 -24 36 -41 29 -46
                -7 -4 -7 -9 -2 -12 6 -4 23 7 39 24 l28 30 -47 46 -46 47 -31 -29 c-16 -16
                -30 -24 -30 -17 0 8 -7 9 -22 3 -13 -5 -37 -6 -55 -4 -43 7 -33 33 13 33 19 0
                34 4 34 10 0 5 -13 7 -29 4 -23 -5 -30 -2 -34 12 -4 17 -5 17 -6 2z m203 -67
                c26 -27 31 -61 8 -61 -16 0 -74 68 -68 79 12 18 31 12 60 -18z"></path>
                <path d="M1010 155 c19 -19 36 -35 39 -35 3 0 -10 16 -29 35 -19 19 -36 35
                -39 35 -3 0 10 -16 29 -35z"></path>
                <path d="M1442 195 c-18 -27 -32 -56 -32 -65 0 -26 22 -39 48 -29 30 11 28 21
                -3 13 -21 -5 -25 -3 -25 16 0 13 12 38 26 57 14 18 24 39 22 45 -2 6 -18 -11
                -36 -37z"></path>
                <path d="M1801 217 c-16 -15 -25 -18 -28 -9 -3 6 -9 10 -13 7 -5 -3 -7 -11 -4
                -18 2 -7 -6 -22 -18 -34 -18 -15 -32 -19 -60 -16 -45 6 -51 30 -10 36 l27 4
                -27 2 c-16 0 -28 8 -31 19 -4 15 -5 15 -6 0 -1 -11 -12 -18 -33 -21 l-33 -4
                33 -1 c22 -2 32 -7 32 -18 0 -13 -7 -16 -37 -12 -38 5 -38 5 -54 -43 -19 -59
                -8 -65 15 -8 12 30 21 39 32 35 9 -3 22 -6 30 -6 26 0 14 -18 -17 -25 -24 -5
                -29 -11 -27 -28 4 -29 54 -36 72 -11 10 13 16 14 34 5 12 -6 22 -8 22 -3 0 5
                -14 15 -30 22 -20 8 -30 19 -28 29 4 19 48 28 57 12 4 -7 20 0 43 19 37 30 55
                31 36 0 -17 -27 -2 -53 28 -47 23 4 25 2 20 -19 -4 -13 -2 -24 3 -24 8 0 20
                32 21 52 0 4 -14 23 -31 43 l-31 35 23 19 c13 11 22 22 18 25 -3 3 -16 -5 -28
                -17z m14 -87 c0 -8 -8 -16 -17 -18 -13 -2 -18 3 -18 18 0 15 5 20 18 18 9 -2
                17 -10 17 -18z m-187 -52 c-3 -7 -13 -13 -23 -13 -10 0 -20 6 -22 13 -3 7 5
                12 22 12 17 0 25 -5 23 -12z"></path>
                <path d="M1961 224 c16 -19 2 -30 -53 -39 -21 -4 -38 -11 -38 -16 0 -11 -6
                -12 59 6 30 8 58 12 63 9 19 -12 6 -41 -26 -56 -31 -15 -35 -15 -50 0 -9 9
                -16 11 -16 5 0 -36 54 -38 100 -3 21 16 23 21 12 44 -10 22 -9 28 3 32 8 4 15
                10 15 15 0 6 -10 4 -22 -2 -17 -9 -24 -9 -33 5 -7 9 -16 16 -20 16 -4 0 -2 -7
                6 -16z"></path>
                <path d="M1300 200 c0 -5 9 -10 20 -10 11 0 27 -11 36 -24 22 -35 1 -77 -46
                -93 l-35 -12 45 0 c25 0 63 4 85 8 l40 9 -44 1 c-37 1 -42 3 -36 19 20 45 17
                69 -10 91 -29 22 -55 28 -55 11z"></path>
                <path d="M510 180 c0 -6 7 -13 15 -17 24 -9 27 1 5 15 -13 8 -20 8 -20 2z"></path>
                <path d="M480 139 c0 -11 5 -17 10 -14 6 3 10 13 10 21 0 8 -4 14 -10 14 -5 0
                -10 -9 -10 -21z"></path>
                <path d="M421 145 c1 -19 18 -51 18 -35 0 8 -4 22 -9 30 -5 8 -9 11 -9 5z"></path>
                <path d="M2027 115 c-9 -19 -13 -35 -9 -35 7 0 18 17 40 63 2 4 -1 7 -6 7 -4
                0 -16 -16 -25 -35z"></path>
                <path d="M2070 115 c0 -8 5 -15 10 -15 6 0 10 7 10 15 0 8 -4 15 -10 15 -5 0
                -10 -7 -10 -15z"></path>
                </g>
                </svg>
